
<svg xmlns="http://www.w3.org/2000/svg" width="48" height="32" viewBox="0 0 48 32">
  <path fill="#000" d="M44.48 0H3.52C1.57 0 0 1.57 0 3.52v24.96c0 1.95 1.57 3.52 3.52 3.52h40.96c1.95 0 3.52-1.57 3.52-3.52V3.52C48 1.57 46.43 0 44.48 0z"/>
  <path fill="#FFF" d="M16.96 9.54c.8-1 1.35-2.4 1.2-3.79-1.17.08-2.58.78-3.41 1.77-.75.86-1.4 2.27-1.22 3.61 1.29.1 2.62-.6 3.43-1.59zm1.09 1.92c-1.73-.1-3.21.97-4.04.97s-2.07-.91-3.45-.89c-1.77.03-3.4 1.03-4.3 2.62-1.84 3.18-.48 7.87 1.32 10.46.88 1.27 1.93 2.69 3.31 2.64 1.33-.05 1.83-.86 3.44-.86s2.05.86 3.45.84c1.43-.03 2.33-1.29 3.2-2.57.99-1.45 1.4-2.86 1.42-2.94-.03-.01-2.74-1.06-2.77-4.2-.03-2.64 2.16-3.9 2.26-3.96-1.24-1.82-3.16-2.02-3.84-2.07z"/>
</svg>
