
<svg xmlns="http://www.w3.org/2000/svg" width="48" height="32" viewBox="0 0 48 32">
  <rect width="48" height="32" rx="4" fill="#FFFFFF" stroke="#E6E6E6" stroke-width="1"/>
  <path fill="#00A651" d="M10.63 22h3.5v-5.63h2.69v-2.8h-2.69v-1.73h2.97v-2.84h-6.47V22zm7.42 0h3.5v-4.5c0-1.1.58-1.73 1.5-1.73.9 0 1.4.58 1.4 1.73V22h3.5v-5.44c0-2.64-1.49-4-3.54-4-1.38 0-2.34.52-2.94 1.38h-.06v-1.2h-3.36V22zm14.88.18c3.1 0 5.23-2.14 5.23-5.2 0-3.05-2.13-5.18-5.23-5.18s-5.23 2.13-5.23 5.18c0 3.06 2.14 5.2 5.23 5.2zm0-2.94c-1.25 0-1.82-.98-1.82-2.26 0-1.27.57-2.24 1.82-2.24s1.82.97 1.82 2.24c0 1.28-.57 2.26-1.82 2.26z"/>
</svg>
