
<svg xmlns="http://www.w3.org/2000/svg" width="48" height="32" viewBox="0 0 48 32">
  <path fill="#FF5F00" d="M23.54 16.02c0 4.64-3.76 8.4-8.4 8.4-4.64 0-8.4-3.76-8.4-8.4s3.76-8.4 8.4-8.4c4.64 0 8.4 3.76 8.4 8.4z"/>
  <path fill="#EB001B" d="M40.86 16.02c0 4.64-3.76 8.4-8.4 8.4-4.64 0-8.4-3.76-8.4-8.4s3.76-8.4 8.4-8.4c4.64 0 8.4 3.76 8.4 8.4z"/>
  <path fill="#F79E1B" d="M32.46 7.62a10.38 10.38 0 00-6.92 2.68c-.64.56-1.22 1.2-1.74 1.88a10.37 10.37 0 00-2.68 6.84 10.37 10.37 0 002.68 6.84c.52.68 1.1 1.32 1.74 1.88a10.38 10.38 0 006.92 2.68c4.64 0 8.4-3.76 8.4-8.4 0-4.64-3.76-8.4-8.4-8.4z"/>
</svg>
