
<svg xmlns="http://www.w3.org/2000/svg" width="48" height="32" viewBox="0 0 48 32">
  <path fill="#1434CB" d="M44.48 0H3.52C1.57 0 0 1.57 0 3.52v24.96c0 1.95 1.57 3.52 3.52 3.52h40.96c1.95 0 3.52-1.57 3.52-3.52V3.52C48 1.57 46.43 0 44.48 0z"/>
  <path fill="#FFF" d="M17.64 20.54l2.21-13.01h3.51l-2.21 13.01zm9.87-12.66c-.77-.29-1.98-.61-3.49-.61-3.84 0-6.54 1.94-6.56 4.72-.02 2.05 1.93 3.19 3.4 3.87 1.51.69 2.02 1.14 2.02 1.76-.01.95-1.2 1.38-2.31 1.38-1.55 0-2.37-.22-3.64-.76l-.5-.23-.54 3.19c.9.4 2.56.74 4.28.76 4.04 0 6.67-1.92 6.69-4.89.01-1.63-.97-2.87-3.09-3.89-1.29-.63-2.08-1.05-2.08-1.69.01-.58.7-1.2 2.22-1.2 1.26-.02 2.18.26 2.89.55l.35.16.53-3.11"/>
  <path fill="#FFF" d="M34.66 7.53h3.26l-2.87 13.01h-3.26z"/>
</svg>
